<svg width="174" height="30" viewBox="0 0 174 30" fill="none" xmlns="http://www.w3.org/2000/svg"><g clip-path="url(#clip0_1_2)"><mask id="mask0_1_2" style="mask-type:luminance" maskUnits="userSpaceOnUse" x="0" y="0" width="30" height="30"><path d="M30 0H0v30h30V0z" fill="#fff"/></mask><g mask="url(#mask0_1_2)"><path d="M15 22.825L7.13 27.23a.5.5 0 01-.735-.533l1.758-8.847-6.623-6.124a.5.5 0 01.28-.864L10.767 9.8l3.779-8.19a.5.5 0 01.908 0l3.779 8.19 8.957 1.062a.5.5 0 01.28.864l-6.622 6.124 1.757 8.847a.5.5 0 01-.735.534L15 22.825z" fill="#52B480"/></g><mask id="mask1_1_2" style="mask-type:luminance" maskUnits="userSpaceOnUse" x="36" y="0" width="30" height="30"><path d="M66 0H36v30h30V0z" fill="#fff"/></mask><g mask="url(#mask1_1_2)"><path d="M51 22.825l-7.87 4.405a.5.5 0 01-.735-.533l1.758-8.847-6.623-6.124a.5.5 0 01.28-.864L46.767 9.8l3.779-8.19a.5.5 0 01.908 0l3.779 8.19 8.957 1.062a.5.5 0 01.28.864l-6.623 6.124 1.758 8.847a.5.5 0 01-.735.534L51 22.825z" fill="#52B480"/></g><mask id="mask2_1_2" style="mask-type:luminance" maskUnits="userSpaceOnUse" x="72" y="0" width="30" height="30"><path d="M102 0H72v30h30V0z" fill="#fff"/></mask><g mask="url(#mask2_1_2)"><path d="M87.266 23.2l-7.87 4.405a.5.5 0 01-.735-.533l1.758-8.847-6.623-6.124a.5.5 0 01.28-.864l8.958-1.062 3.778-8.19a.5.5 0 01.908 0l3.779 8.19 8.957 1.062a.5.5 0 01.281.864l-6.623 6.124 1.757 8.847a.5.5 0 01-.734.534l-7.87-4.406z" fill="#52B480"/></g><mask id="mask3_1_2" style="mask-type:luminance" maskUnits="userSpaceOnUse" x="108" y="0" width="30" height="30"><path d="M138 0h-30v30h30V0z" fill="#fff"/></mask><g mask="url(#mask3_1_2)"><path d="M123 22.825l-7.87 4.405a.5.5 0 01-.735-.533l1.758-8.847-6.623-6.124a.5.5 0 01.28-.864l8.958-1.062 3.778-8.19a.5.5 0 01.908 0l3.779 8.19 8.957 1.062a.5.5 0 01.28.864l-6.622 6.124 1.757 8.847a.5.5 0 01-.735.534L123 22.825z" fill="#52B480"/></g><mask id="mask4_1_2" style="mask-type:luminance" maskUnits="userSpaceOnUse" x="144" y="0" width="30" height="30"><path d="M174 0h-30v30h30V0z" fill="#fff"/></mask><g mask="url(#mask4_1_2)"><path d="M159 22.825l-7.87 4.405a.5.5 0 01-.735-.533l1.758-8.847-6.623-6.124a.5.5 0 01.28-.864l8.958-1.062 3.778-8.19a.5.5 0 01.908 0l3.779 8.19 8.957 1.062a.5.5 0 01.28.864l-6.622 6.124 1.757 8.847a.5.5 0 01-.735.534L159 22.825z" fill="#52B480"/></g></g><defs><clipPath id="clip0_1_2"><path fill="#fff" d="M0 0h174v30H0z"/></clipPath></defs></svg>